<?xml version="1.0" encoding="utf-8"?>
<!-- Generator: Adobe Illustrator 21.1.0, SVG Export Plug-In . SVG Version: 6.00 Build 0)  -->
<svg version="1.1" id="Layer_1" xmlns="http://www.w3.org/2000/svg" xmlns:xlink="http://www.w3.org/1999/xlink" x="0px" y="0px"
	 viewBox="0 0 189 49.4" style="enable-background:new 0 0 189 49.4;" xml:space="preserve">
<path style="fill:#ffffff;" d="M188.5,7c-0.3-0.1-0.6,0.2-0.6,0.2c-0.2,0.2,0.2,0.9-0.5,1.4c-0.7,0.5-3.6,1.6-3.5,0.8
	c0.3-3.2,3.3-4.5,2.3-4.9c-1.3-0.5-13.8-2.1-26.1,2.8c-0.3,0.1-3.5-0.7-6.3-1.2c-3.2-0.6-6.5-0.5-6.5-0.6c0,0.3,0,10.2,0,10.2
	c0,0-1.2,1.1-2.6,4.2c-1.5,3.3-3,9.8,1.9,18.7c4.4,8,10.3,10.7,10.3,10.7V32.5c-1.5,0.4-6.7,3.1-7.9,2.1c0,0-0.4-0.4-0.1-1.3
	c0.3-0.9,0.8-1.8,3.3-3.4c2.5-1.7,14.5-7.2,16.5-8.2c2-0.9,14.5-7.1,16.3-8.3c2.1-1.4,3.3-3,3.8-4.1C189.3,8.3,188.8,7.2,188.5,7z"
	/>
<g id="XMLID_1_">
	<path id="XMLID_2_" style="fill:#ffffff;" d="M70.8,39.4c0-3.7,1.9-5.3,5.2-5.3c2,0,3.2,0.6,3.9,1.3l-1,1c-0.6-0.6-1.4-1-2.9-1
		c-2.6,0-3.8,1.3-3.8,4c0,2.7,1,4,3.8,4c2.6,0,3.2-1,3.2-3.1v-0.3h-3.3v-1.3h4.7v1.3c0,2.8-0.8,4.6-4.6,4.6S70.8,42.9,70.8,39.4z"/>
	<path id="XMLID_4_" style="fill:#ffffff;" d="M86.6,40.6h-2.9v4h-1.4V34.3h4.6c2.6,0,3.6,1.1,3.6,3.1c0,1.7-0.7,2.8-2.5,3.1
		l2.3,4.1h-1.5L86.6,40.6z M86.9,39.3c1.4,0,2.2-0.4,2.2-1.9c0-1.5-0.8-1.9-2.3-1.9h-3.2v3.7H86.9z"/>
	<path id="XMLID_7_" style="fill:#ffffff;" d="M91.6,39.4c0-3.7,2-5.3,5.3-5.3s5.3,1.6,5.3,5.3c0,3.7-2,5.3-5.3,5.3
		S91.6,43.2,91.6,39.4z M100.7,39.5c0-2.6-1.2-4-3.9-4c-2.7,0-3.8,1.4-3.8,4s1.2,4,3.8,4C99.6,43.5,100.7,42,100.7,39.5z"/>
	<path id="XMLID_10_" style="fill:#ffffff;" d="M103.8,40.8v-6.5h1.4v6.4c0,1.7,0.5,2.8,3,2.8c2.5,0,3-1.1,3-2.8v-6.4h1.4v6.5
		c0,2-0.6,4-4.4,4S103.8,42.8,103.8,40.8z"/>
	<path id="XMLID_12_" style="fill:#ffffff;" d="M114.8,34.3h4.6c2.6,0,3.6,1.1,3.6,3.2c0,2.1-1,3.4-3.7,3.4h-3.2v3.7h-1.4V34.3z
		 M119.4,39.6c1.5,0,2.2-0.5,2.2-2c0-1.5-0.7-1.9-2.3-1.9h-3.2v4H119.4z"/>
</g>
<g id="XMLID_15_">
	<path id="XMLID_16_" style="fill-rule:evenodd;clip-rule:evenodd;fill:#ffffff;" d="M117.3,6.8h-2.8c-7.7,0-10.5,3.4-10.5,10.9
		c0,8.3,3.8,10.6,11.6,10.6h0.7c7.7,0,11.6-2.3,11.6-10.6C127.8,10.2,125,6.8,117.3,6.8 M116.2,24.3c-0.1,0-0.1,0-0.2,0v0
		c0,0-0.1,0-0.1,0c0,0-0.1,0-0.1,0v0c-0.1,0-0.1,0-0.2,0c-5,0-6-1-6-7.3c0-5.3,1.7-6.1,6.2-6.1v0c0,0,0.1,0,0.1,0c0,0,0.1,0,0.1,0v0
		c4.5,0,6.2,0.8,6.2,6.1C122.2,23.3,121.2,24.3,116.2,24.3"/>
	<path id="XMLID_19_" style="fill-rule:evenodd;clip-rule:evenodd;fill:#ffffff;" d="M35.9,6.8c-2.7,0-6.3,0.5-9.4,1.7v3.9
		c1.8-0.6,5.3-1.4,9.2-1.4c4.1,0,5.7,0.5,5.7,2.9v1c-12.9,0.4-16.6,1.5-16.6,7.2c0,4.2,3.6,6.3,11.1,6.3c4.9,0,11,0,11-7.5v-6.3
		C46.9,7.7,41.8,6.8,35.9,6.8 M41.4,21.7c0,2-1.2,2.6-5.2,2.6c-5.1,0-5.8-0.6-5.8-3c0-1.6,1.1-2.3,6.1-2.6l4.9-0.2V21.7z"/>
	<path id="XMLID_22_" style="fill-rule:evenodd;clip-rule:evenodd;fill:#ffffff;" d="M89.6,6.9L89.6,6.9c-3,0-5.5,0.6-7.3,1.9
		C80.5,7.4,78,6.9,75,6.9v0c-5.8,0.1-10,2-10,7.9V28h5.4V14.9c0-2.9,0.9-3.9,4.6-4v0c3.7,0.2,4.6,1.1,4.6,4V28h0H85h0V14.9
		c0-2.9,0.9-3.9,4.6-4v0c3.7,0.2,4.6,1.1,4.6,4V28h5.4V14.7C99.6,8.9,95.4,6.9,89.6,6.9"/>
	<path id="XMLID_23_" style="fill:#ffffff;" d="M10,28.5c-3.6,0-6.1-0.7-9.2-1.7v-3.9c3.2,1.1,6.6,1.5,9.7,1.5
		c3.6,0,5.7-0.9,5.7-2.5c0-1.1-0.5-1.5-1.9-1.6l-7.3-0.9C2.1,18.8,0,16.9,0,13.3c0-4.8,5-6.4,9.7-6.4c4.4,0,7.6,0.8,10.1,1.7v3.9
		c-2.9-1.1-6.7-1.5-10.1-1.5c-2.1,0-4.8,0.2-4.8,2.1c0,1.3,1.4,1.5,2.6,1.6l6.2,0.7c5,0.6,7.3,2.6,7.3,6.2
		C20.9,23.8,19.8,28.5,10,28.5"/>
	<rect x="53.4" style="fill-rule:evenodd;clip-rule:evenodd;fill:#ffffff;" width="5.4" height="28.2"/>
</g>
</svg>
